<?xml version="1.0" encoding="iso-8859-1"?>
<!-- Generator: Adobe Illustrator 19.0.0, SVG Export Plug-In . SVG Version: 6.00 Build 0)  -->
<svg version="1.1" id="Capa_1" xmlns="http://www.w3.org/2000/svg" xmlns:xlink="http://www.w3.org/1999/xlink" x="0px" y="0px"
	 viewBox="0 0 512 512" style="enable-background:new 0 0 512 512;" xml:space="preserve">
<g>
	<g>
		<path d="M437.02,74.98C388.668,26.629,324.38,0,256,0S123.332,26.629,74.98,74.98C26.629,123.333,0,187.62,0,256
			s26.629,132.667,74.98,181.02C123.332,485.371,187.62,512,256,512s132.668-26.629,181.02-74.98
			C485.371,388.667,512,324.38,512,256S485.371,123.333,437.02,74.98z M426.413,426.413C380.894,471.932,320.374,497,256,497
			s-124.894-25.068-170.413-70.587C40.068,380.894,15,320.374,15,256S40.068,131.106,85.587,85.587
			c4.367-4.367,8.875-8.542,13.509-12.529l11.449,18.151c2.336,3.704,3.113,8.275,2.131,12.542l-13.331,57.893
			c-1.8,7.815,0.461,15.916,6.046,21.67l54.558,56.21c5.053,5.207,12.38,7.816,19.583,6.988l41.036-4.735l40.551,34.312
			l-12.167,33.459c-0.772,2.124-0.545,4.483,0.617,6.421l5.978,9.963c2.131,3.553,6.739,4.705,10.29,2.573
			c3.552-2.131,4.704-6.738,2.573-10.29l-4.14-6.899l16.734-46.02l68.356,9.894l60.294,42.046c1.99,1.388,3.262,3.478,3.578,5.884
			c0.317,2.406-0.369,4.753-1.932,6.609L296.663,465.892c-0.176,0.207-0.483,0.244-0.699,0.085l-8.413-6.139
			c-0.159-0.116-0.238-0.316-0.202-0.511l15.103-80.703c0.337-1.802,0.003-3.666-0.94-5.238l-17.665-29.442
			c-2.133-3.552-6.738-4.702-10.29-2.572c-3.552,2.131-4.704,6.738-2.573,10.29l16.201,27.001l-14.579,77.905
			c-1.094,5.844,1.303,11.885,6.105,15.388l8.411,6.138c2.736,1.998,5.938,2.967,9.122,2.967c4.442,0,8.848-1.889,11.895-5.507
			l114.638-136.16c4.248-5.046,6.19-11.69,5.329-18.23c-0.862-6.54-4.459-12.455-9.87-16.229l-61.751-43.063
			c-0.958-0.668-2.06-1.104-3.216-1.271l-76.153-11.022c-3.507-0.503-6.908,1.52-8.123,4.86l-2.409,6.625L227.78,228.23
			c-1.582-1.338-3.648-1.964-5.704-1.725l-28.856,3.33l-1.191-25.026c-0.207-4.337,2.87-8.132,7.156-8.828l51.639-8.374l0.688,18.57
			c0.15,4.045,3.477,7.223,7.49,7.223c0.094,0,0.188-0.001,0.282-0.005c4.14-0.153,7.371-3.633,7.218-7.772l-0.891-24.064
			l30.245-34.316c2.738-3.107,2.439-7.847-0.668-10.585c-3.108-2.739-7.848-2.44-10.586,0.667l-30.448,34.547l-57.369,9.303
			c-11.824,1.917-20.31,12.385-19.738,24.348l1.239,26.035l-0.471,0.054c-2.615,0.305-5.269-0.646-7.101-2.534l-54.558-56.21
			c-2.025-2.086-2.845-5.023-2.192-7.857l13.331-57.894c1.873-8.135,0.393-16.85-4.061-23.91l-12.381-19.628
			c11.938-9.044,24.603-16.902,37.855-23.503l10.296,16.062c1.974,3.079,5.882,4.283,9.246,2.856l35.316-14.997l33.405-1.378
			c1.719-0.064,2.785,0.822,3.278,1.358c0.494,0.538,1.292,1.691,1.081,3.378c-0.178,1.422-1.053,2.645-2.342,3.271l-29.352,14.256
			c-2.5,1.214-4.123,3.709-4.219,6.486c-0.097,2.777,1.35,5.379,3.759,6.763l47.095,27.055c1.892,1.085,4.16,1.294,6.214,0.576
			c2.057-0.72,3.698-2.299,4.499-4.325l11.729-29.715l52.014,32.333c0.131,0.081,0.278,0.173,0.24,0.499
			c-0.038,0.325-0.203,0.38-0.35,0.429l-22.882,7.627c-3.929,1.31-6.053,5.557-4.743,9.487c1.048,3.143,3.974,5.13,7.114,5.13
			c0.786,0,1.586-0.125,2.373-0.387l22.881-7.627c5.768-1.922,9.793-6.867,10.504-12.905s-2.055-11.783-7.218-14.993l-59.649-37.079
			c-1.89-1.175-4.203-1.449-6.314-0.751c-2.112,0.698-3.805,2.298-4.622,4.367l-11.844,30.004l-27.281-15.673l16.604-8.065
			c5.873-2.852,9.863-8.423,10.674-14.903c0.702-5.618-1.094-11.229-4.928-15.396c-3.835-4.167-9.313-6.427-14.934-6.189
			l-34.771,1.434c-0.903,0.037-1.791,0.237-2.623,0.59L168.212,42.71l-5.738-8.953C191.69,21.462,223.347,15,256,15
			c64.374,0,124.894,25.068,170.413,70.587C471.932,131.106,497,191.626,497,256S471.932,380.894,426.413,426.413z"/>
	</g>
</g>
<g>
</g>
<g>
</g>
<g>
</g>
<g>
</g>
<g>
</g>
<g>
</g>
<g>
</g>
<g>
</g>
<g>
</g>
<g>
</g>
<g>
</g>
<g>
</g>
<g>
</g>
<g>
</g>
<g>
</g>
</svg>
