<?xml version="1.0" encoding="iso-8859-1"?>
<!-- Generator: Adobe Illustrator 19.0.0, SVG Export Plug-In . SVG Version: 6.00 Build 0)  -->
<svg xmlns="http://www.w3.org/2000/svg" xmlns:xlink="http://www.w3.org/1999/xlink" version="1.1" id="Capa_1" x="0px" y="0px" viewBox="0 0 512 512" style="enable-background:new 0 0 512 512;" xml:space="preserve" width="512px" height="512px">
<g>
	<g>
		<g>
			<path d="M443.696,145.025h-162.07l0.003-34.092V42.667C281.629,19.142,262.487,0,238.962,0H68.304     c-4.717,0-8.533,3.821-8.533,8.533v102.4c0,4.713,3.817,8.533,8.533,8.533h196.257l-0.003,33.698     c-0.007,0.138-0.079,0.254-0.079,0.393v85.346c0,0.125,0.066,0.23,0.071,0.354l-0.004,42.346H128.013     c-4.717,0-8.533,3.821-8.533,8.533v42.642c0,4.713,3.817,8.533,8.533,8.533h27.055l32.804,163.829     c0.8,3.988,4.3,6.858,8.367,6.858h153.683c4.067,0,7.567-2.871,8.367-6.858l32.804-163.829h27.055     c4.717,0,8.533-3.821,8.533-8.533v-42.642c0-4.713-3.817-8.533-8.533-8.533H281.614l0.003-34.167h136.479     c18.825,0,34.133-15.313,34.133-34.133v-59.746C452.229,148.846,448.412,145.025,443.696,145.025z M76.838,102.4V17.067h162.125     c14.117,0,25.6,11.483,25.6,25.6V102.4H76.838z M342.929,494.933h-139.7l-30.758-153.621h201.216L342.929,494.933z      M409.612,298.671v25.575H136.546v-25.575h136.265c0.094,0.003,0.173,0.054,0.268,0.054c0.095,0,0.174-0.051,0.268-0.054H409.612     z M435.163,213.304c0,9.413-7.658,17.067-17.067,17.067H281.618l0.006-68.279h153.538V213.304z" fill="#040123"/>
			<path d="M170.621,25.617c-18.825,0-34.133,15.313-34.133,34.133s15.308,34.133,34.133,34.133     c18.825,0,34.133-15.312,34.133-34.133S189.446,25.617,170.621,25.617z M170.621,76.817c-9.408,0-17.067-7.654-17.067-17.067     c0-9.413,7.658-17.067,17.067-17.067s17.067,7.654,17.067,17.067C187.688,69.162,180.029,76.817,170.621,76.817z" fill="#040123"/>
			<path d="M358.329,221.829c14.117,0,25.6-11.483,25.6-25.6s-11.483-25.6-25.6-25.6s-25.6,11.483-25.6,25.6     S344.213,221.829,358.329,221.829z M358.329,187.696c4.708,0,8.533,3.829,8.533,8.533s-3.825,8.533-8.533,8.533     s-8.533-3.829-8.533-8.533S353.621,187.696,358.329,187.696z" fill="#040123"/>
		</g>
	</g>
</g>
<g>
</g>
<g>
</g>
<g>
</g>
<g>
</g>
<g>
</g>
<g>
</g>
<g>
</g>
<g>
</g>
<g>
</g>
<g>
</g>
<g>
</g>
<g>
</g>
<g>
</g>
<g>
</g>
<g>
</g>
</svg>
