<?xml version="1.0" encoding="iso-8859-1"?>
<!-- Generator: Adobe Illustrator 19.0.0, SVG Export Plug-In . SVG Version: 6.00 Build 0)  -->
<svg xmlns="http://www.w3.org/2000/svg" xmlns:xlink="http://www.w3.org/1999/xlink" version="1.1" id="Capa_1" x="0px" y="0px" viewBox="0 0 512 512" style="enable-background:new 0 0 512 512;" xml:space="preserve" width="512px" height="512px">
<g>
	<g>
		<g>
			<path d="M427.499,170.688l58.083-124.392c1.233-2.642,1.033-5.729-0.533-8.192c-1.567-2.458-4.283-3.95-7.2-3.95h-375.4v-8.546     C102.449,11.487,90.958,0,76.841,0C62.724,0,51.233,11.487,51.233,25.608v469.325H34.149c-4.717,0-8.533,3.821-8.533,8.533     S29.433,512,34.149,512h85.342c4.717,0,8.533-3.821,8.533-8.533s-3.817-8.533-8.533-8.533h-17.042V307.221h375.4     c2.917,0,5.633-1.492,7.2-3.95c1.567-2.462,1.767-5.55,0.533-8.192L427.499,170.688z M85.383,42.274     c-0.007,0.145-0.083,0.267-0.083,0.413s0.076,0.268,0.083,0.413v255.174c-0.007,0.145-0.083,0.267-0.083,0.413     s0.076,0.268,0.083,0.413v195.833H68.299V25.608c0-4.708,3.833-8.542,8.542-8.542c4.708,0,8.542,3.833,8.542,8.542V42.274z      M102.449,290.154V51.221h362l-54.1,115.858c-1.067,2.288-1.067,4.929,0,7.217l54.1,115.858H102.449z" fill="#FFFFFF"/>
			<path d="M251.833,119.613l-30.033-0.071c0,0-0.008,0-0.017,0c-2.258,0-4.425,0.896-6.025,2.492     c-1.608,1.6-2.508,3.775-2.508,6.042V213.4c0,4.713,3.817,8.533,8.533,8.533c4.717,0,8.533-3.821,8.533-8.533v-34.004h21.45     c16.483,0,29.892-13.408,29.892-29.892C281.658,133.058,268.283,119.646,251.833,119.613z M251.766,162.329h-21.45v-25.7     l21.483,0.05c7.05,0.017,12.792,5.767,12.792,12.825C264.591,156.575,258.841,162.329,251.766,162.329z" fill="#FFFFFF"/>
			<path d="M324.241,119.538c-18.825,0-34.133,15.312-34.133,34.133v34.133c0,18.821,15.308,34.133,34.133,34.133     c18.825,0,34.133-15.312,34.133-34.133v-34.133C358.374,134.85,343.066,119.538,324.241,119.538z M341.308,187.804     c0,9.412-7.658,17.067-17.067,17.067s-17.067-7.654-17.067-17.067v-34.133c0-9.413,7.658-17.067,17.067-17.067     s17.067,7.654,17.067,17.067V187.804z" fill="#FFFFFF"/>
			<path d="M187.766,136.729c4.717,0,8.533-3.821,8.533-8.533s-3.817-8.533-8.533-8.533h-34.15c-4.717,0-8.533,3.821-8.533,8.533     s3.817,8.533,8.533,8.533h8.4v68.317h-8.4c-4.717,0-8.533,3.821-8.533,8.533s3.817,8.533,8.533,8.533h34.15     c4.717,0,8.533-3.821,8.533-8.533s-3.817-8.533-8.533-8.533h-8.683v-68.317H187.766z" fill="#FFFFFF"/>
		</g>
	</g>
</g>
<g>
</g>
<g>
</g>
<g>
</g>
<g>
</g>
<g>
</g>
<g>
</g>
<g>
</g>
<g>
</g>
<g>
</g>
<g>
</g>
<g>
</g>
<g>
</g>
<g>
</g>
<g>
</g>
<g>
</g>
</svg>
