<?xml version="1.0" encoding="iso-8859-1"?>
<!-- Generator: Adobe Illustrator 19.0.0, SVG Export Plug-In . SVG Version: 6.00 Build 0)  -->
<svg version="1.1" id="Capa_1" xmlns="http://www.w3.org/2000/svg" xmlns:xlink="http://www.w3.org/1999/xlink" x="0px" y="0px"
	 viewBox="0 0 512 512" style="enable-background:new 0 0 512 512;" xml:space="preserve">
<g>
	<g>
		<g>
			<path d="M460.8,170.696h-47.629L288.022,45.556c1.285-3.589,2.111-7.397,2.111-11.422C290.133,15.313,274.821,0,256,0
				s-34.133,15.313-34.133,34.133c0,4.025,0.826,7.834,2.111,11.422L98.829,170.696H51.2c-14.117,0-25.6,11.483-25.6,25.6V486.4
				c0,14.117,11.483,25.6,25.6,25.6h409.6c14.117,0,25.6-11.483,25.6-25.6V196.296C486.4,182.179,474.917,170.696,460.8,170.696z
				 M256,17.067c9.413,0,17.067,7.654,17.067,17.067c0,9.412-7.654,17.067-17.067,17.067c-9.412,0-17.067-7.654-17.067-17.067
				C238.933,24.721,246.588,17.067,256,17.067z M233.811,59.855c5.984,5.169,13.68,8.411,22.189,8.411
				c8.509,0,16.205-3.242,22.189-8.411l110.847,110.841H122.964L233.811,59.855z M469.333,486.4c0,4.704-3.829,8.533-8.533,8.533
				H51.2c-4.704,0-8.533-3.829-8.533-8.533V256.033h426.667V486.4z M469.333,238.967H42.667v-42.671
				c0-4.704,3.829-8.533,8.533-8.533h409.6c4.704,0,8.533,3.829,8.533,8.533V238.967z"/>
			<path d="M62.208,207.358c-1.538,1.538-2.475,3.754-2.475,5.975c0,2.304,0.938,4.438,2.475,6.058
				c1.621,1.621,3.754,2.475,6.058,2.475c2.304,0,4.438-0.854,6.058-2.475c1.533-1.537,2.475-3.754,2.475-6.058
				c0-2.221-0.942-4.438-2.475-5.975C71.079,204.117,65.45,204.2,62.208,207.358z"/>
			<path d="M96.342,207.358c-1.538,1.537-2.475,3.754-2.475,5.975c0,2.304,0.937,4.521,2.475,6.058
				c1.621,1.621,3.754,2.475,6.058,2.475c2.217,0,4.438-0.854,6.058-2.475c1.533-1.621,2.475-3.754,2.475-6.058
				c0-2.221-0.854-4.354-2.475-6.058C105.213,204.117,99.583,204.117,96.342,207.358z"/>
			<path d="M130.475,207.358c-1.538,1.538-2.475,3.754-2.475,5.975c0,2.304,0.938,4.438,2.475,6.058
				c1.621,1.621,3.838,2.475,6.058,2.475c2.217,0,4.438-0.854,6.058-2.475c1.621-1.621,2.475-3.754,2.475-6.058
				c0-2.221-0.854-4.438-2.475-5.975C139.346,204.117,133.717,204.2,130.475,207.358z"/>
			<path d="M273.05,409.517h34.117c4.713,0,8.533-3.821,8.533-8.533s-3.821-8.533-8.533-8.533h-25.583v-17.058h25.583
				c4.713,0,8.533-3.821,8.533-8.533s-3.821-8.533-8.533-8.533h-25.583v-17.058h25.583v0c4.713,0,8.533-3.821,8.533-8.533
				s-3.821-8.533-8.533-8.533H273.05c-4.713,0-8.533,3.821-8.533,8.533v68.25C264.517,405.696,268.337,409.517,273.05,409.517z"/>
			<path d="M341.3,409.517c4.713,0,8.533-3.821,8.533-8.533v-38.496l26.883,43.017c0.291,0.465,0.657,0.847,1.016,1.235
				c0.102,0.11,0.174,0.236,0.281,0.341c0.702,0.684,1.509,1.202,2.373,1.601c0.203,0.094,0.406,0.162,0.617,0.241
				c0.945,0.35,1.926,0.591,2.937,0.593c0.005,0,0.009,0.003,0.014,0.003c0.001,0,0.002-0.001,0.003-0.001
				c0.002,0,0.004,0.001,0.005,0.001c0.991,0,1.971-0.239,2.929-0.593c0.276-0.102,0.525-0.22,0.786-0.349
				c0.263-0.129,0.543-0.195,0.797-0.354c0.274-0.171,0.428-0.443,0.676-0.639c0.465-0.366,0.882-0.741,1.261-1.194
				c0.353-0.422,0.636-0.856,0.897-1.331c0.263-0.471,0.48-0.938,0.65-1.459c0.184-0.564,0.281-1.119,0.345-1.709
				c0.034-0.312,0.183-0.585,0.183-0.906v-68.25c0-4.713-3.821-8.533-8.534-8.533c-4.713,0-8.533,3.821-8.533,8.533v38.495
				l-26.883-43.016c-2.021-3.229-5.95-4.729-9.592-3.683c-3.658,1.05-6.179,4.396-6.179,8.204v68.25
				C332.767,405.696,336.588,409.517,341.3,409.517z"/>
			<path d="M196.208,409.538c4.713,0,8.533-3.821,8.533-8.533V375.4h17.213c14.117,0,25.6-11.483,25.6-25.6s-11.483-25.6-25.6-25.6
				h-25.596c-0.027,0-0.048,0.015-0.075,0.015s-0.048-0.015-0.075-0.015c-4.713,0-8.533,3.821-8.533,8.533v68.271
				C187.675,405.717,191.496,409.538,196.208,409.538z M204.742,341.267h17.213c4.704,0,8.533,3.829,8.533,8.533
				s-3.829,8.533-8.533,8.533h-17.213V341.267z"/>
			<path d="M145.108,409.529c14.112,0,25.596-11.483,25.596-25.596v-34.138c0-14.112-11.483-25.596-25.596-25.596
				c-14.113,0-25.596,11.483-25.596,25.596v34.138C119.513,398.046,130.996,409.529,145.108,409.529z M136.579,349.796
				c0-4.704,3.825-8.529,8.529-8.529s8.529,3.825,8.529,8.529v34.138c0,4.704-3.825,8.529-8.529,8.529s-8.529-3.825-8.529-8.529
				V349.796z"/>
		</g>
	</g>
</g>
<g>
</g>
<g>
</g>
<g>
</g>
<g>
</g>
<g>
</g>
<g>
</g>
<g>
</g>
<g>
</g>
<g>
</g>
<g>
</g>
<g>
</g>
<g>
</g>
<g>
</g>
<g>
</g>
<g>
</g>
</svg>
