<?xml version="1.0" encoding="iso-8859-1"?>
<!-- Generator: Adobe Illustrator 19.0.0, SVG Export Plug-In . SVG Version: 6.00 Build 0)  -->
<svg xmlns="http://www.w3.org/2000/svg" xmlns:xlink="http://www.w3.org/1999/xlink" version="1.1" id="Capa_1" x="0px" y="0px" viewBox="0 0 512 512" style="enable-background:new 0 0 512 512;" xml:space="preserve" width="512px" height="512px">
<g>
	<g>
		<g>
			<path d="M256,34.133c4.717,0,8.533-3.821,8.533-8.533V8.533C264.533,3.821,260.717,0,256,0c-4.717,0-8.533,3.821-8.533,8.533     V25.6C247.467,30.313,251.283,34.133,256,34.133z" fill="#FFFFFF"/>
			<path d="M234.992,183.429l6.75-12.154l6.742,12.15c1.5,2.712,4.358,4.396,7.458,4.396s5.95-1.679,7.458-4.387l6.775-12.188     l6.783,12.192c3.017,5.408,11.9,5.408,14.917,0l14.25-25.6c2.292-4.117,0.808-9.313-3.308-11.604     c-4.142-2.3-9.308-0.808-11.608,3.304l-6.792,12.204l-6.792-12.204c-1.508-2.704-4.358-4.383-7.458-4.383     s-5.958,1.679-7.458,4.388l-6.758,12.167l-6.75-12.158c-1.5-2.712-4.358-4.396-7.458-4.396c-3.1,0-5.958,1.683-7.458,4.392     l-6.75,12.154l-6.742-12.15c-2.283-4.125-7.458-5.604-11.6-3.325c-4.117,2.288-5.608,7.479-3.317,11.6l14.2,25.6     c1.5,2.712,4.358,4.396,7.458,4.396C230.633,187.821,233.492,186.138,234.992,183.429z" fill="#FFFFFF"/>
			<path d="M375.55,153.683c0,4.713,3.817,8.533,8.533,8.533h17.067c4.717,0,8.533-3.821,8.533-8.533     c0-4.713-3.817-8.533-8.533-8.533h-17.067C379.367,145.15,375.55,148.971,375.55,153.683z" fill="#FFFFFF"/>
			<path d="M110.85,162.217h17.067c4.717,0,8.533-3.821,8.533-8.533c0-4.713-3.817-8.533-8.533-8.533H110.85     c-4.717,0-8.533,3.821-8.533,8.533C102.317,158.396,106.133,162.217,110.85,162.217z" fill="#FFFFFF"/>
			<path d="M346.567,71.646c2.183,0,4.367-0.833,6.033-2.496l12.075-12.067c3.333-3.333,3.333-8.738,0-12.071     c-3.333-3.333-8.733-3.329-12.067-0.004l-12.075,12.067c-3.333,3.333-3.333,8.738,0,12.071     C342.2,70.813,344.383,71.646,346.567,71.646z" fill="#FFFFFF"/>
			<path d="M159.4,69.15c1.667,1.662,3.85,2.496,6.033,2.496s4.367-0.833,6.033-2.5c3.333-3.333,3.333-8.738,0-12.071     l-12.075-12.067c-3.333-3.325-8.733-3.329-12.067,0.004s-3.333,8.738,0,12.071L159.4,69.15z" fill="#FFFFFF"/>
			<path d="M301.75,43.233c1.067,0.442,2.175,0.654,3.267,0.654c3.342,0,6.525-1.983,7.883-5.271l6.533-15.767     c1.8-4.354-0.267-9.346-4.617-11.15c-4.325-1.792-9.35,0.254-11.15,4.617l-6.533,15.767     C295.333,36.438,297.4,41.429,301.75,43.233z" fill="#FFFFFF"/>
			<path d="M377.6,194.813c-4.333-1.8-9.35,0.254-11.15,4.617c-1.8,4.354,0.267,9.346,4.617,11.15l15.767,6.533     c1.067,0.442,2.175,0.654,3.267,0.654c3.342,0,6.525-1.983,7.883-5.271c1.8-4.354-0.267-9.346-4.617-11.15L377.6,194.813z" fill="#FFFFFF"/>
			<path d="M118.633,106.021l15.767,6.529c1.067,0.442,2.175,0.654,3.267,0.654c3.342,0,6.525-1.987,7.883-5.271     c1.8-4.354-0.267-9.346-4.617-11.15l-15.767-6.529c-4.325-1.796-9.35,0.263-11.15,4.617     C112.217,99.225,114.283,104.217,118.633,106.021z" fill="#FFFFFF"/>
			<path d="M366.45,107.933c1.358,3.283,4.542,5.271,7.883,5.271c1.092,0,2.2-0.213,3.267-0.654l15.767-6.529     c4.35-1.804,6.417-6.796,4.617-11.15s-6.808-6.408-11.15-4.617l-15.767,6.529C366.717,98.587,364.65,103.579,366.45,107.933z" fill="#FFFFFF"/>
			<path d="M134.4,194.812l-15.767,6.533c-4.35,1.804-6.417,6.796-4.617,11.15c1.358,3.288,4.542,5.271,7.883,5.271     c1.092,0,2.2-0.212,3.267-0.654l15.767-6.533c4.35-1.804,6.417-6.796,4.617-11.15C143.75,195.067,138.725,193.017,134.4,194.812z     " fill="#FFFFFF"/>
			<path d="M199.1,38.617c1.358,3.287,4.542,5.271,7.883,5.271c1.092,0,2.2-0.212,3.267-0.654c4.35-1.804,6.417-6.796,4.617-11.15     l-6.533-15.767c-1.8-4.362-6.808-6.404-11.15-4.617c-4.35,1.804-6.417,6.796-4.617,11.15L199.1,38.617z" fill="#FFFFFF"/>
			<path d="M419.8,330.017l-112.608-34.829l0.008-11.817c0.108-0.554,0.167-1.129,0.167-1.717c0-0.613-0.058-1.212-0.183-1.787     c-0.017-21.154,7.417-40.204,21.242-54.029c9.283-9.279,16.85-20.517,21.883-32.471c5.367-12.663,8.092-26.067,8.092-39.838     c0-0.179-0.008-0.362-0.017-0.542C358.1,96.787,312.275,51.15,255.992,51.15C199.533,51.15,153.6,97.063,153.6,153.5     c0,0.179,0.008,0.362,0.017,0.542c0.067,13.488,2.758,26.7,8.025,39.346c5.275,12.333,12.667,23.258,22.225,32.717     c14.442,14.371,21.883,33.967,20.942,55.55v13.533l-112.8,34.892C67.6,338.25,51.2,361.013,51.2,386.725v116.738     c0,4.713,3.817,8.533,8.533,8.533h76.779c0.007,0,0.014,0.004,0.021,0.004s0.014-0.004,0.021-0.004h238.892     c0.007,0,0.014,0.004,0.021,0.004s0.014-0.004,0.021-0.004h76.779c4.717,0,8.533-3.821,8.533-8.533V386.725     C460.8,361.013,444.4,338.246,419.8,330.017z M215.867,309.633c3.575-1.108,6.008-4.417,6.008-8.158l-0.017-19.442     c1.158-26.067-8.058-50.225-26.233-68.3c-7.733-7.654-13.892-16.758-18.258-26.983c-4.433-10.646-6.683-21.821-6.683-33.221     c0-0.167-0.008-0.333-0.017-0.504c0.258-46.808,38.433-84.808,85.325-84.808c47.05,0,85.325,38.258,85.325,85.283     c0,0.167,0.008,0.333,0.017,0.504c-0.067,11.3-2.333,22.3-6.75,32.721c-4.192,9.958-10.492,19.308-18.475,27.296     c-17.233,17.229-26.467,41.304-25.983,67.633v19.825c0,3.742,2.433,7.046,6.008,8.154l38.044,11.766l-21.927,42.25     l-52.017-29.725c-2.617-1.5-5.85-1.5-8.467,0L199.75,363.65l-21.927-42.25L215.867,309.633z M281.058,432.208L256,457.267     l-25.058-25.058l10.955-72.987L256,351.163l14.103,8.059L281.058,432.208z M443.733,494.929H384v-51.196     c0-4.713-3.817-8.533-8.533-8.533c-4.717,0-8.533,3.821-8.533,8.533v51.196H145.067v-51.196c0-4.713-3.817-8.533-8.533-8.533     c-4.717,0-8.533,3.821-8.533,8.533v51.196H68.267V386.725c0-18.362,11.717-34.625,28.975-40.4l64.013-19.799l27.437,52.87     c1.075,2.063,2.933,3.6,5.167,4.258c2.217,0.65,4.633,0.383,6.642-0.779l22.515-12.865l-9.59,63.923     c-0.4,2.679,0.492,5.388,2.408,7.3l34.133,34.133c1.667,1.667,3.85,2.5,6.033,2.5s4.367-0.833,6.033-2.5l34.133-34.133     c1.917-1.912,2.808-4.621,2.408-7.3l-9.59-63.923l22.515,12.865c1.3,0.746,2.758,1.125,4.233,1.125     c0.808,0,1.625-0.117,2.408-0.346c2.233-0.658,4.092-2.196,5.167-4.258l27.437-52.872l63.821,19.739     c17.442,5.837,29.167,22.1,29.167,40.462V494.929z" fill="#FFFFFF"/>
		</g>
	</g>
</g>
<g>
</g>
<g>
</g>
<g>
</g>
<g>
</g>
<g>
</g>
<g>
</g>
<g>
</g>
<g>
</g>
<g>
</g>
<g>
</g>
<g>
</g>
<g>
</g>
<g>
</g>
<g>
</g>
<g>
</g>
</svg>
