<?xml version="1.0" encoding="iso-8859-1"?>
<!-- Generator: Adobe Illustrator 19.0.0, SVG Export Plug-In . SVG Version: 6.00 Build 0)  -->
<svg version="1.1" id="Capa_1" xmlns="http://www.w3.org/2000/svg" xmlns:xlink="http://www.w3.org/1999/xlink" x="0px" y="0px"
	 viewBox="0 0 511.998 511.998" style="enable-background:new 0 0 511.998 511.998;" xml:space="preserve">
<g>
	<g>
		<g>
			<path d="M255.999,349.906c4.713,0,8.533-3.821,8.533-8.533V307.24c0-4.713-3.821-8.533-8.533-8.533s-8.533,3.821-8.533,8.533
				v34.133C247.466,346.085,251.286,349.906,255.999,349.906z"/>
			<path d="M221.845,298.706c-4.713,0-8.533,3.821-8.533,8.533v17.054c0,4.712,3.821,8.533,8.533,8.533
				c4.713,0,8.533-3.821,8.533-8.533V307.24C230.378,302.527,226.557,298.706,221.845,298.706z"/>
			<path d="M290.153,332.827c4.713,0,8.533-3.821,8.533-8.533V307.24c0-4.713-3.821-8.533-8.533-8.533s-8.533,3.821-8.533,8.533
				v17.054C281.62,329.006,285.441,332.827,290.153,332.827z"/>
			<path d="M255.999,196.377c23.525,0,42.667-19.142,42.667-42.667s-19.142-42.667-42.667-42.667s-42.667,19.142-42.667,42.667
				S232.474,196.377,255.999,196.377z M255.999,128.11c14.117,0,25.6,11.483,25.6,25.6s-11.483,25.6-25.6,25.6
				s-25.6-11.483-25.6-25.6S241.882,128.11,255.999,128.11z"/>
			<path d="M485.591,193.598c-0.254-0.208-0.525-0.404-0.8-0.579c-4.379-3.417-9.825-5.288-15.458-5.288H332.269
				c0.257-4.788,0.53-9.573,0.53-14.421c0-69.087-26.637-133.112-71.254-171.267c-3.192-2.725-7.9-2.725-11.092,0
				c-44.617,38.154-71.254,102.179-71.254,171.267c0,4.848,0.273,9.633,0.53,14.421H42.666c-5.621,0-11.054,1.862-15.425,5.263
				c-0.287,0.183-0.567,0.388-0.833,0.604c-0.174,0.143-0.296,0.33-0.466,0.478c-0.076,0.073-0.144,0.146-0.217,0.222
				c-5.472,4.86-8.659,11.705-8.659,19.033v273.067c0,7.387,3.228,14.292,8.78,19.157c0.012,0.012,0.023,0.024,0.034,0.035
				c0.192,0.167,0.33,0.378,0.527,0.541c0.254,0.208,0.525,0.404,0.8,0.579c4.379,3.417,9.825,5.287,15.458,5.287h426.667
				c5.621,0,11.054-1.862,15.425-5.262c0.288-0.183,0.567-0.388,0.833-0.604c0.165-0.136,0.28-0.314,0.442-0.453
				c0.091-0.087,0.172-0.173,0.258-0.265c5.46-4.859,8.642-11.695,8.642-19.016V213.331
				C494.932,205.673,491.528,198.481,485.591,193.598z M255.999,20.002c37.529,35.433,59.733,92.1,59.733,153.308
				c0,22.733-3.021,44.775-8.987,65.621H205.253c-5.967-20.846-8.987-42.888-8.987-65.621
				C196.266,112.102,218.47,55.435,255.999,20.002z M284.861,273.06h-57.725l8.538-17.063h40.649L284.861,273.06z M181.235,204.798
				c1.859,15.522,4.932,30.689,9.543,45.242c1.121,3.55,4.413,5.958,8.133,5.958h17.678l-10.895,21.779
				c-1.321,2.646-1.179,5.787,0.375,8.304c1.554,2.512,4.3,4.046,7.258,4.046h85.342c2.958,0,5.704-1.533,7.258-4.046
				c1.554-2.517,1.696-5.658,0.375-8.304l-10.895-21.779h17.678c3.721,0,7.013-2.408,8.133-5.958
				c4.61-14.553,7.683-29.719,9.543-45.242h130.252L266.77,364.115c-6.242,5.171-15.3,5.162-21.575-0.025L50.983,204.798H181.235z
				 M34.181,486.639c-0.003-0.084-0.049-0.156-0.049-0.241V213.331c0-0.085,0.046-0.157,0.049-0.241l166.651,136.687L34.181,486.639
				z M50.98,494.931l163.308-134.117l20.056,16.45c6.279,5.192,13.975,7.788,21.667,7.788c7.679,0,15.354-2.587,21.608-7.763
				l20.088-16.477l163.31,134.118H50.98z M477.866,486.398c0,0.085-0.046,0.158-0.049,0.243L311.165,349.776l166.652-136.688
				c0.003,0.085,0.049,0.157,0.049,0.243V486.398z"/>
		</g>
	</g>
</g>
<g>
</g>
<g>
</g>
<g>
</g>
<g>
</g>
<g>
</g>
<g>
</g>
<g>
</g>
<g>
</g>
<g>
</g>
<g>
</g>
<g>
</g>
<g>
</g>
<g>
</g>
<g>
</g>
<g>
</g>
</svg>
