<?xml version="1.0" encoding="iso-8859-1"?>
<!-- Generator: Adobe Illustrator 19.0.0, SVG Export Plug-In . SVG Version: 6.00 Build 0)  -->
<svg version="1.1" id="Capa_1" xmlns="http://www.w3.org/2000/svg" xmlns:xlink="http://www.w3.org/1999/xlink" x="0px" y="0px"
	 viewBox="0 0 512 512" style="enable-background:new 0 0 512 512;" xml:space="preserve">
<g>
	<g>
		<g>
			<path d="M486.4,93.866H319.394c-12.064-36.779-31.837-68.785-57.735-91.721c-3.233-2.858-8.083-2.858-11.317,0
				c-25.898,22.936-45.671,54.942-57.736,91.721H25.6c-14.117,0-25.6,11.483-25.6,25.6v315.733c0,14.117,11.483,25.6,25.6,25.6
				h186.203l-5.696,34.133h-35.44c-4.717,0-8.533,3.821-8.533,8.533s3.817,8.533,8.533,8.533h42.667h85.333h42.667
				c4.717,0,8.533-3.821,8.533-8.533s-3.817-8.533-8.533-8.533h-35.44l-5.696-34.133H486.4c14.117,0,25.6-11.483,25.6-25.6V119.466
				C512,105.349,500.517,93.866,486.4,93.866z M206.732,105.78c0.041-0.094,0.05-0.199,0.087-0.295
				c10.033-33.77,26.869-63.432,49.181-85.291c22.313,21.859,39.15,51.524,49.182,85.296c0.036,0.094,0.046,0.196,0.086,0.288
				c6.789,22.957,10.465,47.787,10.465,73.42c0,23.646-3.042,46.579-9.042,68.267h-76.437c-0.005,0-0.01,0-0.016,0h-24.931
				c-6-21.687-9.042-44.621-9.042-68.267C196.267,153.566,199.944,128.737,206.732,105.78z M286.067,290.136h-60.133l10.253-25.604
				h39.628L286.067,290.136z M198.908,264.532h18.889L205.4,295.499c-1.05,2.629-0.733,5.608,0.858,7.954
				c1.583,2.346,4.233,3.75,7.067,3.75h85.35c2.833,0,5.483-1.404,7.067-3.75c1.592-2.346,1.908-5.325,0.858-7.954l-12.397-30.967
				h18.889c3.75,0,7.067-2.45,8.158-6.037c7.667-25.071,11.55-51.75,11.55-79.296c0-11.553-0.768-22.945-2.123-34.133H460.8v238.933
				H51.2V145.066h130.123c-1.355,11.189-2.123,22.58-2.123,34.133c0,27.546,3.883,54.225,11.55,79.296
				C191.842,262.082,195.158,264.532,198.908,264.532z M223.408,494.932l5.696-34.133h53.791l5.696,34.133H223.408z
				 M494.933,435.199c0,4.704-3.825,8.533-8.533,8.533H25.6c-4.708,0-8.533-3.829-8.533-8.533V119.466
				c0-4.704,3.825-8.533,8.533-8.533h162.054c-1.422,5.61-2.705,11.29-3.774,17.067H42.667c-4.717,0-8.533,3.821-8.533,8.533v256
				c0,4.713,3.817,8.533,8.533,8.533h426.667c4.717,0,8.533-3.821,8.533-8.533v-256c0-4.713-3.817-8.533-8.533-8.533H328.121
				c-1.07-5.777-2.353-11.456-3.774-17.067H486.4c4.708,0,8.533,3.829,8.533,8.533V435.199z"/>
			<path d="M256,366.982c4.717,0,8.533-3.821,8.533-8.533v-34.133c0-4.713-3.817-8.533-8.533-8.533
				c-4.717,0-8.533,3.821-8.533,8.533v34.133C247.467,363.161,251.283,366.982,256,366.982z"/>
			<path d="M221.85,349.907c4.717,0,8.533-3.821,8.533-8.533v-17.058c0-4.713-3.817-8.533-8.533-8.533s-8.533,3.821-8.533,8.533
				v17.058C213.317,346.086,217.133,349.907,221.85,349.907z"/>
			<path d="M290.15,349.907c4.717,0,8.533-3.821,8.533-8.533v-17.058c0-4.713-3.817-8.533-8.533-8.533
				c-4.717,0-8.533,3.821-8.533,8.533v17.058C281.617,346.086,285.433,349.907,290.15,349.907z"/>
			<path d="M256,204.87c23.525,0,42.667-19.142,42.667-42.667S279.525,119.537,256,119.537s-42.667,19.142-42.667,42.667
				S232.475,204.87,256,204.87z M256,136.603c14.117,0,25.6,11.483,25.6,25.6s-11.483,25.6-25.6,25.6s-25.6-11.483-25.6-25.6
				S241.883,136.603,256,136.603z"/>
		</g>
	</g>
</g>
<g>
</g>
<g>
</g>
<g>
</g>
<g>
</g>
<g>
</g>
<g>
</g>
<g>
</g>
<g>
</g>
<g>
</g>
<g>
</g>
<g>
</g>
<g>
</g>
<g>
</g>
<g>
</g>
<g>
</g>
</svg>
