<?xml version="1.0" encoding="iso-8859-1"?>
<!-- Generator: Adobe Illustrator 19.0.0, SVG Export Plug-In . SVG Version: 6.00 Build 0)  -->
<svg xmlns="http://www.w3.org/2000/svg" xmlns:xlink="http://www.w3.org/1999/xlink" version="1.1" id="Capa_1" x="0px" y="0px" viewBox="0 0 512 512" style="enable-background:new 0 0 512 512;" xml:space="preserve" width="512px" height="512px">
<g>
	<g>
		<g>
			<path d="M504.446,323.596L183.35,2.5c-1.6-1.6-3.771-2.5-6.033-2.5H8.533C3.821,0,0,3.821,0,8.533v168.783     c0,2.263,0.9,4.433,2.5,6.033l86.096,86.096c3.333,3.333,8.733,3.333,12.067,0c3.333-3.333,3.333-8.733,0-12.067l-83.596-83.596     V17.067h156.717L492.417,335.7c1.621,1.604,2.517,3.733,2.517,6c0,2.271-0.896,4.404-2.554,6.046L347.708,492.413     c-1.604,1.625-3.738,2.521-6.004,2.521H341.7c-2.267,0-4.396-0.896-6.038-2.554l-29.95-29.954c-3.333-3.333-8.733-3.333-12.067,0     c-3.333,3.329-3.333,8.733,0,12.067l29.913,29.917c4.833,4.896,11.275,7.588,18.142,7.592c0,0,0,0,0.004,0     c6.863,0,13.308-2.696,18.108-7.554l144.6-144.596c4.892-4.838,7.587-11.283,7.587-18.15     C511.996,334.833,509.304,328.392,504.446,323.596z" fill="#FFFFFF"/>
			<path d="M102.437,68.304c-18.821,0-34.133,15.312-34.133,34.133c0,18.821,15.312,34.133,34.133,34.133     c18.821,0,34.133-15.312,34.133-34.133C136.571,83.617,121.258,68.304,102.437,68.304z M102.437,119.504     c-9.412,0-17.067-7.654-17.067-17.067c0-9.412,7.654-17.067,17.067-17.067c9.413,0,17.067,7.654,17.067,17.067     C119.504,111.85,111.85,119.504,102.437,119.504z" fill="#FFFFFF"/>
			<path d="M332.817,375.383c4.713,0,8.533-3.821,8.533-8.533s-3.821-8.533-8.533-8.533h-17.568     c-4.23-59.033-51.45-106.24-110.49-110.443v-17.616c0-4.713-3.821-8.533-8.533-8.533s-8.533,3.821-8.533,8.533v17.616     c-59.041,4.203-106.264,51.409-110.494,110.443H59.629c-4.713,0-8.533,3.821-8.533,8.533s3.821,8.533,8.533,8.533h17.563     c4.18,59.082,51.423,106.341,110.5,110.547v17.516c0,4.713,3.821,8.533,8.533,8.533s8.533-3.821,8.533-8.533V485.93     c59.076-4.206,106.316-51.465,110.496-110.547H332.817z M204.758,468.864v-16.618c0-4.713-3.821-8.533-8.533-8.533     s-8.533,3.821-8.533,8.533v16.618c-49.672-4.127-89.331-43.804-93.433-93.48h16.566c4.713,0,8.533-3.821,8.533-8.533     s-3.821-8.533-8.533-8.533H94.264c4.15-49.63,43.791-89.252,93.428-93.376v16.514c0,4.713,3.821,8.533,8.533,8.533     s8.533-3.821,8.533-8.533v-16.514c49.633,4.124,89.273,43.747,93.423,93.376h-16.565c-4.713,0-8.533,3.821-8.533,8.533     s3.821,8.533,8.533,8.533h16.57C294.085,425.059,254.427,464.736,204.758,468.864z" fill="#FFFFFF"/>
			<path d="M196.225,332.725c-18.821,0-34.133,15.312-34.133,34.133s15.313,34.133,34.133,34.133s34.133-15.313,34.133-34.133     S215.046,332.725,196.225,332.725z M196.225,383.925c-9.413,0-17.067-7.654-17.067-17.067s7.654-17.067,17.067-17.067     s17.067,7.654,17.067,17.067S205.638,383.925,196.225,383.925z" fill="#FFFFFF"/>
		</g>
	</g>
</g>
<g>
</g>
<g>
</g>
<g>
</g>
<g>
</g>
<g>
</g>
<g>
</g>
<g>
</g>
<g>
</g>
<g>
</g>
<g>
</g>
<g>
</g>
<g>
</g>
<g>
</g>
<g>
</g>
<g>
</g>
</svg>
